<svg viewBox="0 0 200 200" xmlns="http://www.w3.org/2000/svg">
  <defs>
    <linearGradient id="hkBg" x1="0%" y1="0%" x2="0%" y2="100%">
      <stop offset="0%" stop-color="#1A1A4A"/>
      <stop offset="100%" stop-color="#0D1A2E"/>
    </linearGradient>
  </defs>
  <circle cx="100" cy="100" r="100" fill="url(#hkBg)"/>
  <!-- Harbor/skyline glow at bottom -->
  <path d="M0,155 Q50,150 100,155 Q150,160 200,155 L200,200 L0,200 Z" fill="#0D2A40" opacity="0.8"/>
  <!-- City light reflections -->
  <rect x="38" y="162" width="3" height="12" fill="#FFD700" opacity="0.2"/>
  <rect x="55" y="158" width="3" height="16" fill="#4ECDC4" opacity="0.2"/>
  <rect x="140" y="160" width="3" height="14" fill="#FFD700" opacity="0.2"/>
  <rect x="158" y="158" width="3" height="16" fill="#4ECDC4" opacity="0.2"/>
  <!-- Stars -->
  <circle cx="42" cy="28" r="1.5" fill="#4ECDC4" opacity="0.7"/>
  <circle cx="162" cy="32" r="1.5" fill="#FFD700" opacity="0.6"/>
  <circle cx="35" cy="48" r="1" fill="white" opacity="0.5"/>
  <circle cx="168" cy="45" r="1" fill="white" opacity="0.5"/>
  <!-- Castle - smaller scale, teal accents -->
  <!-- Base wall -->
  <rect x="34" y="140" width="132" height="16" rx="2" fill="#2A3A5A"/>
  <!-- Base battlements -->
  <rect x="34" y="132" width="5" height="10" fill="#2A3A5A"/>
  <rect x="41" y="132" width="5" height="10" fill="#2A3A5A"/>
  <rect x="48" y="132" width="5" height="10" fill="#2A3A5A"/>
  <rect x="150" y="132" width="5" height="10" fill="#2A3A5A"/>
  <rect x="157" y="132" width="5" height="10" fill="#2A3A5A"/>
  <rect x="164" y="132" width="5" height="10" fill="#2A3A5A"/>
  <!-- Gate arch -->
  <path d="M87,156 L87,138 Q100,129 113,138 L113,156 Z" fill="#0D1A2E"/>
  <!-- Teal arch accent -->
  <path d="M87,138 Q100,126 113,138" fill="none" stroke="#4ECDC4" stroke-width="2"/>
  <!-- Left tower -->
  <rect x="40" y="106" width="20" height="36" rx="1" fill="#2A3A5A"/>
  <path d="M38,108 Q50,90 62,108" fill="#1A2A4A"/>
  <line x1="50" y1="90" x2="50" y2="76" stroke="#4ECDC4" stroke-width="2"/>
  <polygon points="50,76 57,81 50,86" fill="#4ECDC4"/>
  <!-- Left inner tower -->
  <rect x="66" y="96" width="18" height="46" rx="1" fill="#3A4A6A"/>
  <path d="M64,98 Q75,78 86,98" fill="#2A3A5A"/>
  <line x1="75" y1="78" x2="75" y2="62" stroke="#4ECDC4" stroke-width="2"/>
  <polygon points="75,62 82,67 75,72" fill="#FFD700"/>
  <!-- Right tower -->
  <rect x="140" y="106" width="20" height="36" rx="1" fill="#2A3A5A"/>
  <path d="M138,108 Q150,90 162,108" fill="#1A2A4A"/>
  <line x1="150" y1="90" x2="150" y2="76" stroke="#4ECDC4" stroke-width="2"/>
  <polygon points="150,76 157,81 150,86" fill="#4ECDC4"/>
  <!-- Right inner tower -->
  <rect x="116" y="96" width="18" height="46" rx="1" fill="#3A4A6A"/>
  <path d="M114,98 Q125,78 136,98" fill="#2A3A5A"/>
  <line x1="125" y1="78" x2="125" y2="62" stroke="#4ECDC4" stroke-width="2"/>
  <polygon points="125,62 132,67 125,72" fill="#FFD700"/>
  <!-- Main center tower -->
  <rect x="84" y="80" width="32" height="62" rx="1" fill="#4A5A7A"/>
  <path d="M80,82 Q100,60 120,82" fill="#3A4A6A"/>
  <!-- Secondary spire -->
  <path d="M90,64 Q100,50 110,64" fill="#2A3A5A"/>
  <line x1="100" y1="50" x2="100" y2="34" stroke="#4ECDC4" stroke-width="2.5"/>
  <!-- Teal star/gem at top -->
  <polygon points="100,34 103,40 100,46 97,40" fill="#4ECDC4"/>
  <!-- Windows -->
  <rect x="90" y="90" width="8" height="10" rx="4" fill="#4ECDC4" opacity="0.6"/>
  <rect x="102" y="90" width="8" height="10" rx="4" fill="#4ECDC4" opacity="0.6"/>
  <!-- Label -->
  <text x="100" y="173" text-anchor="middle" font-family="Georgia, serif" font-size="9" font-weight="bold" fill="#4ECDC4" letter-spacing="1">HONG KONG</text>
</svg>
