<svg viewBox="0 0 200 200" xmlns="http://www.w3.org/2000/svg">
  <defs>
    <radialGradient id="tdsOcean" cx="50%" cy="60%" r="70%">
      <stop offset="0%" stop-color="#003366"/>
      <stop offset="100%" stop-color="#000D1A"/>
    </radialGradient>
  </defs>
  <circle cx="100" cy="100" r="100" fill="url(#tdsOcean)"/>
  <!-- Ocean waves at bottom -->
  <path d="M0,155 Q25,148 50,155 Q75,162 100,155 Q125,148 150,155 Q175,162 200,155 L200,200 L0,200 Z" fill="#004080" opacity="0.6"/>
  <path d="M0,162 Q30,156 60,162 Q90,168 120,162 Q150,156 180,162 Q190,160 200,162 L200,200 L0,200 Z" fill="#003070" opacity="0.8"/>
  <!-- Mount Prometheus / volcano -->
  <polygon points="100,50 60,130 140,130" fill="#3D2B1A"/>
  <polygon points="100,50 70,110 130,110" fill="#4A3220"/>
  <!-- Lava glow at top -->
  <ellipse cx="100" cy="52" rx="15" ry="8" fill="#FF6600" opacity="0.6"/>
  <ellipse cx="100" cy="54" rx="9" ry="5" fill="#FFAA00" opacity="0.8"/>
  <!-- Lava streams -->
  <path d="M95,58 Q92,70 88,85 Q86,90 90,88 Q92,80 95,70 Z" fill="#FF4400" opacity="0.6"/>
  <path d="M105,58 Q108,72 112,86 Q114,91 110,89 Q108,80 105,70 Z" fill="#FF4400" opacity="0.5"/>
  <!-- Compass rose in foreground/sea area -->
  <circle cx="100" cy="118" r="22" fill="none" stroke="#4A90D9" stroke-width="1.5" opacity="0.8"/>
  <circle cx="100" cy="118" r="14" fill="none" stroke="#4A90D9" stroke-width="1" opacity="0.5"/>
  <!-- Compass points -->
  <polygon points="100,96 103,112 100,110 97,112" fill="#E8E8E8"/>
  <polygon points="100,140 103,124 100,126 97,124" fill="#C0C0C0"/>
  <polygon points="78,118 94,115 92,118 94,121" fill="#C0C0C0"/>
  <polygon points="122,118 106,115 108,118 106,121" fill="#E8E8E8"/>
  <!-- N label -->
  <text x="100" y="93" text-anchor="middle" font-family="Arial, sans-serif" font-size="7" font-weight="bold" fill="#4A90D9">N</text>
  <!-- Center dot -->
  <circle cx="100" cy="118" r="3" fill="#4A90D9"/>
  <!-- Ship anchor shape hint -->
  <circle cx="100" cy="118" r="2" fill="#FFD700"/>
  <!-- Distant ship silhouette -->
  <path d="M40,148 L40,138 Q48,134 56,138 L56,148 Z" fill="#004080" opacity="0.5"/>
  <polygon points="40,138 48,128 56,138" fill="#004080" opacity="0.4"/>
  <rect x="47" y="130" width="2" height="10" fill="#003366" opacity="0.5"/>
  <!-- Label -->
  <text x="100" y="176" text-anchor="middle" font-family="Georgia, serif" font-size="9" font-weight="bold" fill="#4A90D9" letter-spacing="1">TOKYO DISNEYSEA</text>
</svg>
